<svg width="8" height="8" viewBox="0 0 8 8" fill="none" xmlns="http://www.w3.org/2000/svg">
<path d="M2.64423 1.22546C2.80963 -0.408485 5.19037 -0.408486 5.35577 1.22545L5.37418 1.40729C5.43937 2.05133 5.94866 2.56063 6.5927 2.62582L6.77454 2.64423C8.40848 2.80963 8.40849 5.19037 6.77455 5.35577L6.59271 5.37418C5.94867 5.43937 5.43937 5.94866 5.37418 6.5927L5.35577 6.77454C5.19037 8.40848 2.80963 8.40849 2.64423 6.77455L2.62582 6.59271C2.56063 5.94867 2.05134 5.43937 1.40729 5.37418L1.22546 5.35577C-0.408485 5.19037 -0.408486 2.80963 1.22545 2.64423L1.40729 2.62582C2.05133 2.56063 2.56063 2.05134 2.62582 1.40729L2.64423 1.22546Z" fill="#FFC73B"/>
</svg>
